<mxfile host="65bd71144e" pages="4">
    <diagram id="GHyfy0XcklWbWLRF0B5o" name="Schema de l'application">
        <mxGraphModel dx="1558" dy="3209" grid="1" gridSize="10" guides="1" tooltips="1" connect="1" arrows="1" fold="1" page="1" pageScale="1" pageWidth="827" pageHeight="1169" math="0" shadow="0">
            <root>
                <mxCell id="0"/>
                <mxCell id="1" parent="0"/>
                <mxCell id="4tkuWNtm0vYZJsBvk5a5-1" value="&lt;h1&gt;StudiScrum&lt;/h1&gt;&lt;p&gt;Pouvoir gérer la gestion de projet d'un projet&lt;/p&gt;&lt;p&gt;&lt;br&gt;&lt;/p&gt;&lt;p&gt;Authentification -&amp;gt; Utilisateurs&lt;/p&gt;&lt;p&gt;Projet -&amp;gt; Taches&lt;/p&gt;&lt;p&gt;Les utilisateurs participent à des projets&lt;/p&gt;" style="text;html=1;strokeColor=none;fillColor=none;spacing=5;spacingTop=-20;whiteSpace=wrap;overflow=hidden;rounded=0;" parent="1" vertex="1">
                    <mxGeometry x="20" y="-1160" width="490" height="290" as="geometry"/>
                </mxCell>
                <mxCell id="4tkuWNtm0vYZJsBvk5a5-5" style="edgeStyle=orthogonalEdgeStyle;rounded=0;orthogonalLoop=1;jettySize=auto;html=1;entryX=0;entryY=0.5;entryDx=0;entryDy=0;" parent="1" source="4tkuWNtm0vYZJsBvk5a5-2" target="4tkuWNtm0vYZJsBvk5a5-3" edge="1">
                    <mxGeometry relative="1" as="geometry"/>
                </mxCell>
                <mxCell id="4tkuWNtm0vYZJsBvk5a5-2" value="Actor" style="shape=umlActor;verticalLabelPosition=bottom;verticalAlign=top;html=1;outlineConnect=0;" parent="1" vertex="1">
                    <mxGeometry x="30" y="-644" width="30" height="60" as="geometry"/>
                </mxCell>
                <mxCell id="4tkuWNtm0vYZJsBvk5a5-6" style="edgeStyle=orthogonalEdgeStyle;rounded=0;orthogonalLoop=1;jettySize=auto;html=1;" parent="1" source="4tkuWNtm0vYZJsBvk5a5-3" target="4tkuWNtm0vYZJsBvk5a5-4" edge="1">
                    <mxGeometry relative="1" as="geometry"/>
                </mxCell>
                <mxCell id="4tkuWNtm0vYZJsBvk5a5-3" value="Connexion" style="shape=trapezoid;perimeter=trapezoidPerimeter;whiteSpace=wrap;html=1;fixedSize=1;" parent="1" vertex="1">
                    <mxGeometry x="100" y="-644" width="120" height="60" as="geometry"/>
                </mxCell>
                <mxCell id="4tkuWNtm0vYZJsBvk5a5-4" value="" style="shape=process;whiteSpace=wrap;html=1;backgroundOutline=1;" parent="1" vertex="1">
                    <mxGeometry x="270" y="-844" width="540" height="460" as="geometry"/>
                </mxCell>
                <mxCell id="4tkuWNtm0vYZJsBvk5a5-7" value="CRUD projets dont il est propriétaire" style="rounded=1;whiteSpace=wrap;html=1;" parent="1" vertex="1">
                    <mxGeometry x="340" y="-820" width="170" height="120" as="geometry"/>
                </mxCell>
                <mxCell id="4tkuWNtm0vYZJsBvk5a5-10" style="edgeStyle=orthogonalEdgeStyle;rounded=0;orthogonalLoop=1;jettySize=auto;html=1;" parent="1" source="4tkuWNtm0vYZJsBvk5a5-8" target="4tkuWNtm0vYZJsBvk5a5-9" edge="1">
                    <mxGeometry relative="1" as="geometry"/>
                </mxCell>
                <mxCell id="4tkuWNtm0vYZJsBvk5a5-13" style="edgeStyle=orthogonalEdgeStyle;rounded=0;orthogonalLoop=1;jettySize=auto;html=1;entryX=0;entryY=0.5;entryDx=0;entryDy=0;" parent="1" source="4tkuWNtm0vYZJsBvk5a5-8" target="4tkuWNtm0vYZJsBvk5a5-11" edge="1">
                    <mxGeometry relative="1" as="geometry"/>
                </mxCell>
                <mxCell id="4tkuWNtm0vYZJsBvk5a5-8" value="Accéder aux projets&lt;span style=&quot;color: rgba(0 , 0 , 0 , 0) ; font-family: monospace ; font-size: 0px&quot;&gt;%3CmxGraphModel%3E%3Croot%3E%3CmxCell%20id%3D%220%22%2F%3E%3CmxCell%20id%3D%221%22%20parent%3D%220%22%2F%3E%3CmxCell%20id%3D%222%22%20value%3D%22CRUD%20projets%20dont%20il%20est%20propri%C3%A9taire%22%20style%3D%22rounded%3D1%3BwhiteSpace%3Dwrap%3Bhtml%3D1%3B%22%20vertex%3D%221%22%20parent%3D%221%22%3E%3CmxGeometry%20x%3D%22340%22%20y%3D%22-820%22%20width%3D%22170%22%20height%3D%22120%22%20as%3D%22geometry%22%2F%3E%3C%2FmxCell%3E%3C%2Froot%3E%3C%2FmxGraphModel%3E&lt;/span&gt;&lt;span style=&quot;color: rgba(0 , 0 , 0 , 0) ; font-family: monospace ; font-size: 0px&quot;&gt;%3CmxGraphModel%3E%3Croot%3E%3CmxCell%20id%3D%220%22%2F%3E%3CmxCell%20id%3D%221%22%20parent%3D%220%22%2F%3E%3CmxCell%20id%3D%222%22%20value%3D%22CRUD%20projets%20dont%20il%20est%20propri%C3%A9taire%22%20style%3D%22rounded%3D1%3BwhiteSpace%3Dwrap%3Bhtml%3D1%3B%22%20vertex%3D%221%22%20parent%3D%221%22%3E%3CmxGeometry%20x%3D%22340%22%20y%3D%22-820%22%20width%3D%22170%22%20height%3D%22120%22%20as%3D%22geometry%22%2F%3E%3C%2FmxCell%3E%3C%2Froot%3E%3C%2FmxGraphModel%3E&lt;/span&gt;" style="rounded=1;whiteSpace=wrap;html=1;" parent="1" vertex="1">
                    <mxGeometry x="340" y="-674" width="170" height="120" as="geometry"/>
                </mxCell>
                <mxCell id="4tkuWNtm0vYZJsBvk5a5-9" value="CRUD sur des tâches" style="rounded=1;whiteSpace=wrap;html=1;" parent="1" vertex="1">
                    <mxGeometry x="570" y="-674" width="170" height="120" as="geometry"/>
                </mxCell>
                <mxCell id="4tkuWNtm0vYZJsBvk5a5-11" value="Modifier le statut d'une tâche" style="rounded=1;whiteSpace=wrap;html=1;" parent="1" vertex="1">
                    <mxGeometry x="570" y="-540" width="170" height="120" as="geometry"/>
                </mxCell>
            </root>
        </mxGraphModel>
    </diagram>
    <diagram id="_hbTVMEaLfy5fY7PyW8B" name="MCD">
        <mxGraphModel dx="857" dy="479" grid="1" gridSize="10" guides="1" tooltips="1" connect="1" arrows="1" fold="1" page="1" pageScale="1" pageWidth="827" pageHeight="1169" math="0" shadow="0">
            <root>
                <mxCell id="A3WfE6Hg5xonvucdb7x0-0"/>
                <mxCell id="A3WfE6Hg5xonvucdb7x0-1" parent="A3WfE6Hg5xonvucdb7x0-0"/>
                <mxCell id="A3WfE6Hg5xonvucdb7x0-58" value="" style="group" parent="A3WfE6Hg5xonvucdb7x0-1" vertex="1" connectable="0">
                    <mxGeometry x="70" y="140" width="426.7440755054908" height="372.5" as="geometry"/>
                </mxCell>
                <mxCell id="A3WfE6Hg5xonvucdb7x0-32" value="Users" style="shape=table;startSize=30;container=1;collapsible=1;childLayout=tableLayout;fixedRows=1;rowLines=0;fontStyle=1;align=center;resizeLast=1;fontSize=14;" parent="A3WfE6Hg5xonvucdb7x0-58" vertex="1">
                    <mxGeometry width="212.09407550549082" height="372.5" as="geometry"/>
                </mxCell>
                <mxCell id="A3WfE6Hg5xonvucdb7x0-33" value="" style="shape=partialRectangle;collapsible=0;dropTarget=0;pointerEvents=0;fillColor=none;top=0;left=0;bottom=1;right=0;points=[[0,0.5],[1,0.5]];portConstraint=eastwest;" parent="A3WfE6Hg5xonvucdb7x0-32" vertex="1">
                    <mxGeometry y="30" width="212.09407550549082" height="30" as="geometry"/>
                </mxCell>
                <mxCell id="A3WfE6Hg5xonvucdb7x0-34" value="PK" style="shape=partialRectangle;connectable=0;fillColor=none;top=0;left=0;bottom=0;right=0;fontStyle=1;overflow=hidden;" parent="A3WfE6Hg5xonvucdb7x0-33" vertex="1">
                    <mxGeometry width="30" height="30" as="geometry"/>
                </mxCell>
                <mxCell id="A3WfE6Hg5xonvucdb7x0-35" value="IdUser" style="shape=partialRectangle;connectable=0;fillColor=none;top=0;left=0;bottom=0;right=0;align=left;spacingLeft=6;fontStyle=5;overflow=hidden;" parent="A3WfE6Hg5xonvucdb7x0-33" vertex="1">
                    <mxGeometry x="30" width="182.09407550549082" height="30" as="geometry"/>
                </mxCell>
                <mxCell id="A3WfE6Hg5xonvucdb7x0-36" value="" style="shape=partialRectangle;collapsible=0;dropTarget=0;pointerEvents=0;fillColor=none;top=0;left=0;bottom=0;right=0;points=[[0,0.5],[1,0.5]];portConstraint=eastwest;" parent="A3WfE6Hg5xonvucdb7x0-32" vertex="1">
                    <mxGeometry y="60" width="212.09407550549082" height="30" as="geometry"/>
                </mxCell>
                <mxCell id="A3WfE6Hg5xonvucdb7x0-37" value="" style="shape=partialRectangle;connectable=0;fillColor=none;top=0;left=0;bottom=0;right=0;editable=1;overflow=hidden;" parent="A3WfE6Hg5xonvucdb7x0-36" vertex="1">
                    <mxGeometry width="30" height="30" as="geometry"/>
                </mxCell>
                <mxCell id="A3WfE6Hg5xonvucdb7x0-38" value="SurName" style="shape=partialRectangle;connectable=0;fillColor=none;top=0;left=0;bottom=0;right=0;align=left;spacingLeft=6;overflow=hidden;" parent="A3WfE6Hg5xonvucdb7x0-36" vertex="1">
                    <mxGeometry x="30" width="182.09407550549082" height="30" as="geometry"/>
                </mxCell>
                <mxCell id="A3WfE6Hg5xonvucdb7x0-39" value="" style="shape=partialRectangle;collapsible=0;dropTarget=0;pointerEvents=0;fillColor=none;top=0;left=0;bottom=0;right=0;points=[[0,0.5],[1,0.5]];portConstraint=eastwest;" parent="A3WfE6Hg5xonvucdb7x0-32" vertex="1">
                    <mxGeometry y="90" width="212.09407550549082" height="30" as="geometry"/>
                </mxCell>
                <mxCell id="A3WfE6Hg5xonvucdb7x0-40" value="" style="shape=partialRectangle;connectable=0;fillColor=none;top=0;left=0;bottom=0;right=0;editable=1;overflow=hidden;" parent="A3WfE6Hg5xonvucdb7x0-39" vertex="1">
                    <mxGeometry width="30" height="30" as="geometry"/>
                </mxCell>
                <mxCell id="A3WfE6Hg5xonvucdb7x0-41" value="Forename" style="shape=partialRectangle;connectable=0;fillColor=none;top=0;left=0;bottom=0;right=0;align=left;spacingLeft=6;overflow=hidden;" parent="A3WfE6Hg5xonvucdb7x0-39" vertex="1">
                    <mxGeometry x="30" width="182.09407550549082" height="30" as="geometry"/>
                </mxCell>
                <mxCell id="A3WfE6Hg5xonvucdb7x0-42" value="" style="shape=partialRectangle;collapsible=0;dropTarget=0;pointerEvents=0;fillColor=none;top=0;left=0;bottom=0;right=0;points=[[0,0.5],[1,0.5]];portConstraint=eastwest;" parent="A3WfE6Hg5xonvucdb7x0-32" vertex="1">
                    <mxGeometry y="120" width="212.09407550549082" height="30" as="geometry"/>
                </mxCell>
                <mxCell id="A3WfE6Hg5xonvucdb7x0-43" value="" style="shape=partialRectangle;connectable=0;fillColor=none;top=0;left=0;bottom=0;right=0;editable=1;overflow=hidden;" parent="A3WfE6Hg5xonvucdb7x0-42" vertex="1">
                    <mxGeometry width="30" height="30" as="geometry"/>
                </mxCell>
                <mxCell id="A3WfE6Hg5xonvucdb7x0-44" value="Mail" style="shape=partialRectangle;connectable=0;fillColor=none;top=0;left=0;bottom=0;right=0;align=left;spacingLeft=6;overflow=hidden;" parent="A3WfE6Hg5xonvucdb7x0-42" vertex="1">
                    <mxGeometry x="30" width="182.09407550549082" height="30" as="geometry"/>
                </mxCell>
                <mxCell id="A3WfE6Hg5xonvucdb7x0-45" value="" style="shape=partialRectangle;collapsible=0;dropTarget=0;pointerEvents=0;fillColor=none;top=0;left=0;bottom=0;right=0;points=[[0,0.5],[1,0.5]];portConstraint=eastwest;" parent="A3WfE6Hg5xonvucdb7x0-32" vertex="1">
                    <mxGeometry y="150" width="212.09407550549082" height="30" as="geometry"/>
                </mxCell>
                <mxCell id="A3WfE6Hg5xonvucdb7x0-46" value="" style="shape=partialRectangle;connectable=0;fillColor=none;top=0;left=0;bottom=0;right=0;editable=1;overflow=hidden;" parent="A3WfE6Hg5xonvucdb7x0-45" vertex="1">
                    <mxGeometry width="30" height="30" as="geometry"/>
                </mxCell>
                <mxCell id="A3WfE6Hg5xonvucdb7x0-47" value="Password" style="shape=partialRectangle;connectable=0;fillColor=none;top=0;left=0;bottom=0;right=0;align=left;spacingLeft=6;overflow=hidden;" parent="A3WfE6Hg5xonvucdb7x0-45" vertex="1">
                    <mxGeometry x="30" width="182.09407550549082" height="30" as="geometry"/>
                </mxCell>
                <mxCell id="A3WfE6Hg5xonvucdb7x0-48" value="PasswordKey" style="shape=partialRectangle;connectable=0;fillColor=none;top=0;left=0;bottom=0;right=0;align=left;spacingLeft=6;overflow=hidden;" parent="A3WfE6Hg5xonvucdb7x0-58" vertex="1">
                    <mxGeometry x="35.34901258424847" y="342.5" width="176.74506292124232" height="30" as="geometry"/>
                </mxCell>
                <mxCell id="A3WfE6Hg5xonvucdb7x0-49" value="" style="shape=partialRectangle;connectable=0;fillColor=none;top=0;left=0;bottom=0;right=0;align=left;spacingLeft=6;overflow=hidden;" parent="A3WfE6Hg5xonvucdb7x0-58" vertex="1">
                    <mxGeometry x="35.34901258424847" y="342.5" width="176.74506292124232" height="30" as="geometry"/>
                </mxCell>
                <mxCell id="A3WfE6Hg5xonvucdb7x0-53" value="Telephone" style="shape=partialRectangle;connectable=0;fillColor=none;top=0;left=0;bottom=0;right=0;align=left;spacingLeft=6;overflow=hidden;" parent="A3WfE6Hg5xonvucdb7x0-58" vertex="1">
                    <mxGeometry x="35.34901258424847" y="212.5" width="176.74506292124232" height="30" as="geometry"/>
                </mxCell>
                <mxCell id="A3WfE6Hg5xonvucdb7x0-54" value="DateEmbauche" style="shape=partialRectangle;connectable=0;fillColor=none;top=0;left=0;bottom=0;right=0;align=left;spacingLeft=6;overflow=hidden;" parent="A3WfE6Hg5xonvucdb7x0-58" vertex="1">
                    <mxGeometry x="35.34901258424847" y="242.5" width="176.74506292124232" height="30" as="geometry"/>
                </mxCell>
                <mxCell id="A3WfE6Hg5xonvucdb7x0-55" value="DateRenvoi" style="shape=partialRectangle;connectable=0;fillColor=none;top=0;left=0;bottom=0;right=0;align=left;spacingLeft=6;overflow=hidden;" parent="A3WfE6Hg5xonvucdb7x0-58" vertex="1">
                    <mxGeometry x="35.34901258424847" y="272.5" width="176.74506292124232" height="30" as="geometry"/>
                </mxCell>
                <mxCell id="A3WfE6Hg5xonvucdb7x0-57" value="SubjectId" style="shape=partialRectangle;connectable=0;fillColor=none;top=0;left=0;bottom=0;right=0;align=left;spacingLeft=6;overflow=hidden;" parent="A3WfE6Hg5xonvucdb7x0-58" vertex="1">
                    <mxGeometry x="35.34901258424847" y="302.5" width="176.74506292124232" height="30" as="geometry"/>
                </mxCell>
                <mxCell id="A3WfE6Hg5xonvucdb7x0-116" value="Affectations" style="swimlane;childLayout=stackLayout;horizontal=1;startSize=30;horizontalStack=0;rounded=1;fontSize=14;fontStyle=0;strokeWidth=2;resizeParent=0;resizeLast=1;shadow=0;dashed=0;align=center;" parent="A3WfE6Hg5xonvucdb7x0-58" vertex="1">
                    <mxGeometry x="250" y="80" width="160" height="120" as="geometry"/>
                </mxCell>
                <mxCell id="A3WfE6Hg5xonvucdb7x0-117" value="idProjet&#10;idUtilisateur" style="align=left;strokeColor=none;fillColor=none;spacingLeft=4;fontSize=12;verticalAlign=top;resizable=0;rotatable=0;part=1;" parent="A3WfE6Hg5xonvucdb7x0-116" vertex="1">
                    <mxGeometry y="30" width="160" height="90" as="geometry"/>
                </mxCell>
                <mxCell id="A3WfE6Hg5xonvucdb7x0-105" style="edgeStyle=orthogonalEdgeStyle;rounded=0;orthogonalLoop=1;jettySize=auto;html=1;exitX=0.5;exitY=1;exitDx=0;exitDy=0;" parent="A3WfE6Hg5xonvucdb7x0-1" source="A3WfE6Hg5xonvucdb7x0-59" edge="1">
                    <mxGeometry relative="1" as="geometry">
                        <mxPoint x="480" y="770" as="targetPoint"/>
                        <Array as="points">
                            <mxPoint x="626" y="770"/>
                        </Array>
                        <mxPoint x="770.0645161290323" y="502.5" as="sourcePoint"/>
                    </mxGeometry>
                </mxCell>
                <mxCell id="A3WfE6Hg5xonvucdb7x0-106" value="Contiens" style="edgeLabel;html=1;align=center;verticalAlign=middle;resizable=0;points=[];" parent="A3WfE6Hg5xonvucdb7x0-105" vertex="1" connectable="0">
                    <mxGeometry x="0.0829" y="-2" relative="1" as="geometry">
                        <mxPoint as="offset"/>
                    </mxGeometry>
                </mxCell>
                <mxCell id="A3WfE6Hg5xonvucdb7x0-107" value="0.N" style="edgeLabel;html=1;align=center;verticalAlign=middle;resizable=0;points=[];" parent="A3WfE6Hg5xonvucdb7x0-105" vertex="1" connectable="0">
                    <mxGeometry x="0.8144" relative="1" as="geometry">
                        <mxPoint as="offset"/>
                    </mxGeometry>
                </mxCell>
                <mxCell id="A3WfE6Hg5xonvucdb7x0-108" value="1.1" style="edgeLabel;html=1;align=center;verticalAlign=middle;resizable=0;points=[];" parent="A3WfE6Hg5xonvucdb7x0-105" vertex="1" connectable="0">
                    <mxGeometry x="-0.9008" y="-2" relative="1" as="geometry">
                        <mxPoint as="offset"/>
                    </mxGeometry>
                </mxCell>
                <mxCell id="A3WfE6Hg5xonvucdb7x0-59" value="Projets" style="shape=table;startSize=30;container=1;collapsible=1;childLayout=tableLayout;fixedRows=1;rowLines=0;fontStyle=1;align=center;resizeLast=1;fontSize=14;" parent="A3WfE6Hg5xonvucdb7x0-1" vertex="1">
                    <mxGeometry x="520" y="130" width="212.09407550549082" height="372.5" as="geometry"/>
                </mxCell>
                <mxCell id="A3WfE6Hg5xonvucdb7x0-60" value="" style="shape=partialRectangle;collapsible=0;dropTarget=0;pointerEvents=0;fillColor=none;top=0;left=0;bottom=1;right=0;points=[[0,0.5],[1,0.5]];portConstraint=eastwest;" parent="A3WfE6Hg5xonvucdb7x0-59" vertex="1">
                    <mxGeometry y="30" width="212.09407550549082" height="30" as="geometry"/>
                </mxCell>
                <mxCell id="A3WfE6Hg5xonvucdb7x0-61" value="PK" style="shape=partialRectangle;connectable=0;fillColor=none;top=0;left=0;bottom=0;right=0;fontStyle=1;overflow=hidden;" parent="A3WfE6Hg5xonvucdb7x0-60" vertex="1">
                    <mxGeometry width="30" height="30" as="geometry"/>
                </mxCell>
                <mxCell id="A3WfE6Hg5xonvucdb7x0-62" value="idprojet" style="shape=partialRectangle;connectable=0;fillColor=none;top=0;left=0;bottom=0;right=0;align=left;spacingLeft=6;fontStyle=5;overflow=hidden;" parent="A3WfE6Hg5xonvucdb7x0-60" vertex="1">
                    <mxGeometry x="30" width="182.09407550549082" height="30" as="geometry"/>
                </mxCell>
                <mxCell id="A3WfE6Hg5xonvucdb7x0-63" value="" style="shape=partialRectangle;collapsible=0;dropTarget=0;pointerEvents=0;fillColor=none;top=0;left=0;bottom=0;right=0;points=[[0,0.5],[1,0.5]];portConstraint=eastwest;" parent="A3WfE6Hg5xonvucdb7x0-59" vertex="1">
                    <mxGeometry y="60" width="212.09407550549082" height="30" as="geometry"/>
                </mxCell>
                <mxCell id="A3WfE6Hg5xonvucdb7x0-64" value="" style="shape=partialRectangle;connectable=0;fillColor=none;top=0;left=0;bottom=0;right=0;editable=1;overflow=hidden;" parent="A3WfE6Hg5xonvucdb7x0-63" vertex="1">
                    <mxGeometry width="30" height="30" as="geometry"/>
                </mxCell>
                <mxCell id="A3WfE6Hg5xonvucdb7x0-65" value="nom" style="shape=partialRectangle;connectable=0;fillColor=none;top=0;left=0;bottom=0;right=0;align=left;spacingLeft=6;overflow=hidden;" parent="A3WfE6Hg5xonvucdb7x0-63" vertex="1">
                    <mxGeometry x="30" width="182.09407550549082" height="30" as="geometry"/>
                </mxCell>
                <mxCell id="A3WfE6Hg5xonvucdb7x0-66" value="" style="shape=partialRectangle;collapsible=0;dropTarget=0;pointerEvents=0;fillColor=none;top=0;left=0;bottom=0;right=0;points=[[0,0.5],[1,0.5]];portConstraint=eastwest;" parent="A3WfE6Hg5xonvucdb7x0-59" vertex="1">
                    <mxGeometry y="90" width="212.09407550549082" height="30" as="geometry"/>
                </mxCell>
                <mxCell id="A3WfE6Hg5xonvucdb7x0-67" value="" style="shape=partialRectangle;connectable=0;fillColor=none;top=0;left=0;bottom=0;right=0;editable=1;overflow=hidden;" parent="A3WfE6Hg5xonvucdb7x0-66" vertex="1">
                    <mxGeometry width="30" height="30" as="geometry"/>
                </mxCell>
                <mxCell id="A3WfE6Hg5xonvucdb7x0-68" value="description" style="shape=partialRectangle;connectable=0;fillColor=none;top=0;left=0;bottom=0;right=0;align=left;spacingLeft=6;overflow=hidden;" parent="A3WfE6Hg5xonvucdb7x0-66" vertex="1">
                    <mxGeometry x="30" width="182.09407550549082" height="30" as="geometry"/>
                </mxCell>
                <mxCell id="A3WfE6Hg5xonvucdb7x0-69" value="" style="shape=partialRectangle;collapsible=0;dropTarget=0;pointerEvents=0;fillColor=none;top=0;left=0;bottom=0;right=0;points=[[0,0.5],[1,0.5]];portConstraint=eastwest;" parent="A3WfE6Hg5xonvucdb7x0-59" vertex="1">
                    <mxGeometry y="120" width="212.09407550549082" height="30" as="geometry"/>
                </mxCell>
                <mxCell id="A3WfE6Hg5xonvucdb7x0-70" value="" style="shape=partialRectangle;connectable=0;fillColor=none;top=0;left=0;bottom=0;right=0;editable=1;overflow=hidden;" parent="A3WfE6Hg5xonvucdb7x0-69" vertex="1">
                    <mxGeometry width="30" height="30" as="geometry"/>
                </mxCell>
                <mxCell id="A3WfE6Hg5xonvucdb7x0-71" value="" style="shape=partialRectangle;connectable=0;fillColor=none;top=0;left=0;bottom=0;right=0;align=left;spacingLeft=6;overflow=hidden;" parent="A3WfE6Hg5xonvucdb7x0-69" vertex="1">
                    <mxGeometry x="30" width="182.09407550549082" height="30" as="geometry"/>
                </mxCell>
                <mxCell id="A3WfE6Hg5xonvucdb7x0-72" value="" style="shape=partialRectangle;collapsible=0;dropTarget=0;pointerEvents=0;fillColor=none;top=0;left=0;bottom=0;right=0;points=[[0,0.5],[1,0.5]];portConstraint=eastwest;" parent="A3WfE6Hg5xonvucdb7x0-59" vertex="1">
                    <mxGeometry y="150" width="212.09407550549082" height="30" as="geometry"/>
                </mxCell>
                <mxCell id="A3WfE6Hg5xonvucdb7x0-73" value="" style="shape=partialRectangle;connectable=0;fillColor=none;top=0;left=0;bottom=0;right=0;editable=1;overflow=hidden;" parent="A3WfE6Hg5xonvucdb7x0-72" vertex="1">
                    <mxGeometry width="30" height="30" as="geometry"/>
                </mxCell>
                <mxCell id="A3WfE6Hg5xonvucdb7x0-74" value="" style="shape=partialRectangle;connectable=0;fillColor=none;top=0;left=0;bottom=0;right=0;align=left;spacingLeft=6;overflow=hidden;" parent="A3WfE6Hg5xonvucdb7x0-72" vertex="1">
                    <mxGeometry x="30" width="182.09407550549082" height="30" as="geometry"/>
                </mxCell>
                <mxCell id="A3WfE6Hg5xonvucdb7x0-110" style="edgeStyle=orthogonalEdgeStyle;rounded=0;orthogonalLoop=1;jettySize=auto;html=1;entryX=0;entryY=1;entryDx=0;entryDy=0;" parent="A3WfE6Hg5xonvucdb7x0-1" source="A3WfE6Hg5xonvucdb7x0-75" target="A3WfE6Hg5xonvucdb7x0-32" edge="1">
                    <mxGeometry relative="1" as="geometry">
                        <mxPoint x="170" y="520" as="targetPoint"/>
                        <Array as="points">
                            <mxPoint x="70" y="786"/>
                        </Array>
                    </mxGeometry>
                </mxCell>
                <mxCell id="A3WfE6Hg5xonvucdb7x0-111" value="est affecté à" style="edgeLabel;html=1;align=center;verticalAlign=middle;resizable=0;points=[];" parent="A3WfE6Hg5xonvucdb7x0-110" vertex="1" connectable="0">
                    <mxGeometry x="0.3463" y="-1" relative="1" as="geometry">
                        <mxPoint as="offset"/>
                    </mxGeometry>
                </mxCell>
                <mxCell id="A3WfE6Hg5xonvucdb7x0-112" value="1.1" style="edgeLabel;html=1;align=center;verticalAlign=middle;resizable=0;points=[];" parent="A3WfE6Hg5xonvucdb7x0-110" vertex="1" connectable="0">
                    <mxGeometry x="0.8435" relative="1" as="geometry">
                        <mxPoint as="offset"/>
                    </mxGeometry>
                </mxCell>
                <mxCell id="A3WfE6Hg5xonvucdb7x0-113" value="0.N" style="edgeLabel;html=1;align=center;verticalAlign=middle;resizable=0;points=[];" parent="A3WfE6Hg5xonvucdb7x0-110" vertex="1" connectable="0">
                    <mxGeometry x="-0.8405" y="2" relative="1" as="geometry">
                        <mxPoint as="offset"/>
                    </mxGeometry>
                </mxCell>
                <mxCell id="A3WfE6Hg5xonvucdb7x0-75" value="Taches" style="shape=table;startSize=30;container=1;collapsible=1;childLayout=tableLayout;fixedRows=1;rowLines=0;fontStyle=1;align=center;resizeLast=1;fontSize=14;" parent="A3WfE6Hg5xonvucdb7x0-1" vertex="1">
                    <mxGeometry x="270" y="600" width="212.09407550549082" height="372.5" as="geometry"/>
                </mxCell>
                <mxCell id="A3WfE6Hg5xonvucdb7x0-76" value="" style="shape=partialRectangle;collapsible=0;dropTarget=0;pointerEvents=0;fillColor=none;top=0;left=0;bottom=1;right=0;points=[[0,0.5],[1,0.5]];portConstraint=eastwest;" parent="A3WfE6Hg5xonvucdb7x0-75" vertex="1">
                    <mxGeometry y="30" width="212.09407550549082" height="30" as="geometry"/>
                </mxCell>
                <mxCell id="A3WfE6Hg5xonvucdb7x0-77" value="PK" style="shape=partialRectangle;connectable=0;fillColor=none;top=0;left=0;bottom=0;right=0;fontStyle=1;overflow=hidden;" parent="A3WfE6Hg5xonvucdb7x0-76" vertex="1">
                    <mxGeometry width="30" height="30" as="geometry"/>
                </mxCell>
                <mxCell id="A3WfE6Hg5xonvucdb7x0-78" value="idtaches" style="shape=partialRectangle;connectable=0;fillColor=none;top=0;left=0;bottom=0;right=0;align=left;spacingLeft=6;fontStyle=5;overflow=hidden;" parent="A3WfE6Hg5xonvucdb7x0-76" vertex="1">
                    <mxGeometry x="30" width="182.09407550549082" height="30" as="geometry"/>
                </mxCell>
                <mxCell id="A3WfE6Hg5xonvucdb7x0-79" value="" style="shape=partialRectangle;collapsible=0;dropTarget=0;pointerEvents=0;fillColor=none;top=0;left=0;bottom=0;right=0;points=[[0,0.5],[1,0.5]];portConstraint=eastwest;" parent="A3WfE6Hg5xonvucdb7x0-75" vertex="1">
                    <mxGeometry y="60" width="212.09407550549082" height="30" as="geometry"/>
                </mxCell>
                <mxCell id="A3WfE6Hg5xonvucdb7x0-80" value="" style="shape=partialRectangle;connectable=0;fillColor=none;top=0;left=0;bottom=0;right=0;editable=1;overflow=hidden;" parent="A3WfE6Hg5xonvucdb7x0-79" vertex="1">
                    <mxGeometry width="30" height="30" as="geometry"/>
                </mxCell>
                <mxCell id="A3WfE6Hg5xonvucdb7x0-81" value="nom" style="shape=partialRectangle;connectable=0;fillColor=none;top=0;left=0;bottom=0;right=0;align=left;spacingLeft=6;overflow=hidden;" parent="A3WfE6Hg5xonvucdb7x0-79" vertex="1">
                    <mxGeometry x="30" width="182.09407550549082" height="30" as="geometry"/>
                </mxCell>
                <mxCell id="A3WfE6Hg5xonvucdb7x0-82" value="" style="shape=partialRectangle;collapsible=0;dropTarget=0;pointerEvents=0;fillColor=none;top=0;left=0;bottom=0;right=0;points=[[0,0.5],[1,0.5]];portConstraint=eastwest;" parent="A3WfE6Hg5xonvucdb7x0-75" vertex="1">
                    <mxGeometry y="90" width="212.09407550549082" height="30" as="geometry"/>
                </mxCell>
                <mxCell id="A3WfE6Hg5xonvucdb7x0-83" value="" style="shape=partialRectangle;connectable=0;fillColor=none;top=0;left=0;bottom=0;right=0;editable=1;overflow=hidden;" parent="A3WfE6Hg5xonvucdb7x0-82" vertex="1">
                    <mxGeometry width="30" height="30" as="geometry"/>
                </mxCell>
                <mxCell id="A3WfE6Hg5xonvucdb7x0-84" value="description" style="shape=partialRectangle;connectable=0;fillColor=none;top=0;left=0;bottom=0;right=0;align=left;spacingLeft=6;overflow=hidden;" parent="A3WfE6Hg5xonvucdb7x0-82" vertex="1">
                    <mxGeometry x="30" width="182.09407550549082" height="30" as="geometry"/>
                </mxCell>
                <mxCell id="A3WfE6Hg5xonvucdb7x0-85" value="" style="shape=partialRectangle;collapsible=0;dropTarget=0;pointerEvents=0;fillColor=none;top=0;left=0;bottom=0;right=0;points=[[0,0.5],[1,0.5]];portConstraint=eastwest;" parent="A3WfE6Hg5xonvucdb7x0-75" vertex="1">
                    <mxGeometry y="120" width="212.09407550549082" height="30" as="geometry"/>
                </mxCell>
                <mxCell id="A3WfE6Hg5xonvucdb7x0-86" value="" style="shape=partialRectangle;connectable=0;fillColor=none;top=0;left=0;bottom=0;right=0;editable=1;overflow=hidden;" parent="A3WfE6Hg5xonvucdb7x0-85" vertex="1">
                    <mxGeometry width="30" height="30" as="geometry"/>
                </mxCell>
                <mxCell id="A3WfE6Hg5xonvucdb7x0-87" value="" style="shape=partialRectangle;connectable=0;fillColor=none;top=0;left=0;bottom=0;right=0;align=left;spacingLeft=6;overflow=hidden;" parent="A3WfE6Hg5xonvucdb7x0-85" vertex="1">
                    <mxGeometry x="30" width="182.09407550549082" height="30" as="geometry"/>
                </mxCell>
                <mxCell id="A3WfE6Hg5xonvucdb7x0-88" value="" style="shape=partialRectangle;collapsible=0;dropTarget=0;pointerEvents=0;fillColor=none;top=0;left=0;bottom=0;right=0;points=[[0,0.5],[1,0.5]];portConstraint=eastwest;" parent="A3WfE6Hg5xonvucdb7x0-75" vertex="1">
                    <mxGeometry y="150" width="212.09407550549082" height="30" as="geometry"/>
                </mxCell>
                <mxCell id="A3WfE6Hg5xonvucdb7x0-89" value="" style="shape=partialRectangle;connectable=0;fillColor=none;top=0;left=0;bottom=0;right=0;editable=1;overflow=hidden;" parent="A3WfE6Hg5xonvucdb7x0-88" vertex="1">
                    <mxGeometry width="30" height="30" as="geometry"/>
                </mxCell>
                <mxCell id="A3WfE6Hg5xonvucdb7x0-90" value="" style="shape=partialRectangle;connectable=0;fillColor=none;top=0;left=0;bottom=0;right=0;align=left;spacingLeft=6;overflow=hidden;" parent="A3WfE6Hg5xonvucdb7x0-88" vertex="1">
                    <mxGeometry x="30" width="182.09407550549082" height="30" as="geometry"/>
                </mxCell>
                <mxCell id="A3WfE6Hg5xonvucdb7x0-91" value="datedebut" style="shape=partialRectangle;connectable=0;fillColor=none;top=0;left=0;bottom=0;right=0;align=left;spacingLeft=6;overflow=hidden;" parent="A3WfE6Hg5xonvucdb7x0-1" vertex="1">
                    <mxGeometry x="550" y="250" width="182.09407550549082" height="30" as="geometry"/>
                </mxCell>
                <mxCell id="A3WfE6Hg5xonvucdb7x0-92" value="datefin" style="shape=partialRectangle;connectable=0;fillColor=none;top=0;left=0;bottom=0;right=0;align=left;spacingLeft=6;overflow=hidden;" parent="A3WfE6Hg5xonvucdb7x0-1" vertex="1">
                    <mxGeometry x="550" y="280" width="182.09407550549082" height="30" as="geometry"/>
                </mxCell>
                <mxCell id="A3WfE6Hg5xonvucdb7x0-94" value="datedebut" style="shape=partialRectangle;connectable=0;fillColor=none;top=0;left=0;bottom=0;right=0;align=left;spacingLeft=6;overflow=hidden;" parent="A3WfE6Hg5xonvucdb7x0-1" vertex="1">
                    <mxGeometry x="300" y="720" width="182.09407550549082" height="30" as="geometry"/>
                </mxCell>
                <mxCell id="A3WfE6Hg5xonvucdb7x0-95" value="status" style="shape=partialRectangle;connectable=0;fillColor=none;top=0;left=0;bottom=0;right=0;align=left;spacingLeft=6;overflow=hidden;" parent="A3WfE6Hg5xonvucdb7x0-1" vertex="1">
                    <mxGeometry x="300" y="750" width="182.09407550549082" height="30" as="geometry"/>
                </mxCell>
                <mxCell id="A3WfE6Hg5xonvucdb7x0-96" value="deadline" style="shape=partialRectangle;connectable=0;fillColor=none;top=0;left=0;bottom=0;right=0;align=left;spacingLeft=6;overflow=hidden;" parent="A3WfE6Hg5xonvucdb7x0-1" vertex="1">
                    <mxGeometry x="300" y="780" width="182.09407550549082" height="30" as="geometry"/>
                </mxCell>
                <mxCell id="A3WfE6Hg5xonvucdb7x0-97" style="edgeStyle=orthogonalEdgeStyle;rounded=0;orthogonalLoop=1;jettySize=auto;html=1;entryX=0;entryY=1;entryDx=0;entryDy=0;" parent="A3WfE6Hg5xonvucdb7x0-1" target="A3WfE6Hg5xonvucdb7x0-59" edge="1">
                    <mxGeometry relative="1" as="geometry">
                        <mxPoint x="282" y="420" as="sourcePoint"/>
                        <Array as="points">
                            <mxPoint x="401" y="420"/>
                            <mxPoint x="401" y="502"/>
                        </Array>
                    </mxGeometry>
                </mxCell>
                <mxCell id="A3WfE6Hg5xonvucdb7x0-98" value="Crée" style="edgeLabel;html=1;align=center;verticalAlign=middle;resizable=0;points=[];" parent="A3WfE6Hg5xonvucdb7x0-97" vertex="1" connectable="0">
                    <mxGeometry x="-0.112" y="2" relative="1" as="geometry">
                        <mxPoint as="offset"/>
                    </mxGeometry>
                </mxCell>
                <mxCell id="A3WfE6Hg5xonvucdb7x0-99" value="0.N" style="edgeLabel;html=1;align=center;verticalAlign=middle;resizable=0;points=[];" parent="A3WfE6Hg5xonvucdb7x0-97" vertex="1" connectable="0">
                    <mxGeometry x="0.7674" y="-1" relative="1" as="geometry">
                        <mxPoint as="offset"/>
                    </mxGeometry>
                </mxCell>
                <mxCell id="A3WfE6Hg5xonvucdb7x0-100" value="1.1" style="edgeLabel;html=1;align=center;verticalAlign=middle;resizable=0;points=[];" parent="A3WfE6Hg5xonvucdb7x0-97" vertex="1" connectable="0">
                    <mxGeometry x="-0.9064" y="-1" relative="1" as="geometry">
                        <mxPoint as="offset"/>
                    </mxGeometry>
                </mxCell>
                <mxCell id="A3WfE6Hg5xonvucdb7x0-101" style="edgeStyle=orthogonalEdgeStyle;rounded=0;orthogonalLoop=1;jettySize=auto;html=1;" parent="A3WfE6Hg5xonvucdb7x0-1" source="A3WfE6Hg5xonvucdb7x0-32" edge="1">
                    <mxGeometry relative="1" as="geometry">
                        <mxPoint x="520" y="370" as="targetPoint"/>
                        <Array as="points">
                            <mxPoint x="320" y="370"/>
                            <mxPoint x="320" y="370"/>
                        </Array>
                    </mxGeometry>
                </mxCell>
                <mxCell id="A3WfE6Hg5xonvucdb7x0-102" value="Contribue" style="edgeLabel;html=1;align=center;verticalAlign=middle;resizable=0;points=[];" parent="A3WfE6Hg5xonvucdb7x0-101" vertex="1" connectable="0">
                    <mxGeometry x="-0.0921" y="-1" relative="1" as="geometry">
                        <mxPoint as="offset"/>
                    </mxGeometry>
                </mxCell>
                <mxCell id="A3WfE6Hg5xonvucdb7x0-103" value="0.N" style="edgeLabel;html=1;align=center;verticalAlign=middle;resizable=0;points=[];" parent="A3WfE6Hg5xonvucdb7x0-101" vertex="1" connectable="0">
                    <mxGeometry x="0.7738" relative="1" as="geometry">
                        <mxPoint as="offset"/>
                    </mxGeometry>
                </mxCell>
                <mxCell id="A3WfE6Hg5xonvucdb7x0-104" value="0.N" style="edgeLabel;html=1;align=center;verticalAlign=middle;resizable=0;points=[];" parent="A3WfE6Hg5xonvucdb7x0-101" vertex="1" connectable="0">
                    <mxGeometry x="-0.8805" y="2" relative="1" as="geometry">
                        <mxPoint as="offset"/>
                    </mxGeometry>
                </mxCell>
                <mxCell id="A3WfE6Hg5xonvucdb7x0-56" value="FK" style="shape=partialRectangle;connectable=0;fillColor=none;top=0;left=0;bottom=0;right=0;fontStyle=1;overflow=hidden;" parent="A3WfE6Hg5xonvucdb7x0-1" vertex="1">
                    <mxGeometry x="520" y="462.5" width="35.34901258424847" height="30" as="geometry"/>
                </mxCell>
                <mxCell id="A3WfE6Hg5xonvucdb7x0-51" value="" style="shape=partialRectangle;collapsible=0;dropTarget=0;pointerEvents=0;fillColor=none;top=0;left=0;bottom=1;right=0;points=[[0,0.5],[1,0.5]];portConstraint=eastwest;" parent="A3WfE6Hg5xonvucdb7x0-1" vertex="1">
                    <mxGeometry x="520" y="452.5" width="212.09407550549082" height="10" as="geometry"/>
                </mxCell>
                <mxCell id="A3WfE6Hg5xonvucdb7x0-115" value="idPropriétaire" style="shape=partialRectangle;connectable=0;fillColor=none;top=0;left=0;bottom=0;right=0;align=left;spacingLeft=6;overflow=hidden;" parent="A3WfE6Hg5xonvucdb7x0-1" vertex="1">
                    <mxGeometry x="555.35" y="462.5" width="182.09407550549082" height="30" as="geometry"/>
                </mxCell>
                <mxCell id="A3WfE6Hg5xonvucdb7x0-121" value="" style="shape=partialRectangle;collapsible=0;dropTarget=0;pointerEvents=0;fillColor=none;top=0;left=0;bottom=1;right=0;points=[[0,0.5],[1,0.5]];portConstraint=eastwest;" parent="A3WfE6Hg5xonvucdb7x0-1" vertex="1">
                    <mxGeometry x="270" y="910" width="212.09407550549082" height="10" as="geometry"/>
                </mxCell>
                <mxCell id="A3WfE6Hg5xonvucdb7x0-122" value="idProjetParent" style="shape=partialRectangle;connectable=0;fillColor=none;top=0;left=0;bottom=0;right=0;align=left;spacingLeft=6;overflow=hidden;" parent="A3WfE6Hg5xonvucdb7x0-1" vertex="1">
                    <mxGeometry x="300" y="942.5" width="182.09407550549082" height="30" as="geometry"/>
                </mxCell>
                <mxCell id="A3WfE6Hg5xonvucdb7x0-123" value="FK" style="shape=partialRectangle;connectable=0;fillColor=none;top=0;left=0;bottom=0;right=0;fontStyle=1;overflow=hidden;" parent="A3WfE6Hg5xonvucdb7x0-1" vertex="1">
                    <mxGeometry x="265.7" y="942.5" width="35.34901258424847" height="30" as="geometry"/>
                </mxCell>
                <mxCell id="A3WfE6Hg5xonvucdb7x0-124" value="idUtilisateurAffecte" style="shape=partialRectangle;connectable=0;fillColor=none;top=0;left=0;bottom=0;right=0;align=left;spacingLeft=6;overflow=hidden;" parent="A3WfE6Hg5xonvucdb7x0-1" vertex="1">
                    <mxGeometry x="301.05" y="920" width="182.09407550549082" height="30" as="geometry"/>
                </mxCell>
                <mxCell id="A3WfE6Hg5xonvucdb7x0-125" value="FK" style="shape=partialRectangle;connectable=0;fillColor=none;top=0;left=0;bottom=0;right=0;fontStyle=1;overflow=hidden;" parent="A3WfE6Hg5xonvucdb7x0-1" vertex="1">
                    <mxGeometry x="265.7" y="920" width="35.34901258424847" height="30" as="geometry"/>
                </mxCell>
            </root>
        </mxGraphModel>
    </diagram>
    <diagram id="wea8yEtmyekOnztSExcR" name="Maquettes">
        <mxGraphModel dx="857" dy="479" grid="1" gridSize="10" guides="1" tooltips="1" connect="1" arrows="1" fold="1" page="1" pageScale="1" pageWidth="827" pageHeight="1169" math="0" shadow="0">
            <root>
                <mxCell id="-d9akvzt12ohpf-Q32kC-0"/>
                <mxCell id="-d9akvzt12ohpf-Q32kC-1" parent="-d9akvzt12ohpf-Q32kC-0"/>
                <mxCell id="-d9akvzt12ohpf-Q32kC-2" value="" style="strokeWidth=1;shadow=0;dashed=0;align=center;html=1;shape=mxgraph.mockup.containers.browserWindow;rSize=0;strokeColor=#666666;strokeColor2=#008cff;strokeColor3=#c4c4c4;mainText=,;recursiveResize=0;" parent="-d9akvzt12ohpf-Q32kC-1" vertex="1">
                    <mxGeometry x="40" y="20" width="810" height="510" as="geometry"/>
                </mxCell>
                <mxCell id="-d9akvzt12ohpf-Q32kC-3" value="Page 1" style="strokeWidth=1;shadow=0;dashed=0;align=center;html=1;shape=mxgraph.mockup.containers.anchor;fontSize=17;fontColor=#666666;align=left;" parent="-d9akvzt12ohpf-Q32kC-2" vertex="1">
                    <mxGeometry x="60" y="12" width="110" height="26" as="geometry"/>
                </mxCell>
                <mxCell id="-d9akvzt12ohpf-Q32kC-4" value="https://www.draw.io" style="strokeWidth=1;shadow=0;dashed=0;align=center;html=1;shape=mxgraph.mockup.containers.anchor;rSize=0;fontSize=17;fontColor=#666666;align=left;" parent="-d9akvzt12ohpf-Q32kC-2" vertex="1">
                    <mxGeometry x="130" y="60" width="250" height="26" as="geometry"/>
                </mxCell>
                <mxCell id="-d9akvzt12ohpf-Q32kC-5" value="" style="strokeWidth=1;shadow=0;dashed=0;align=center;html=1;shape=mxgraph.mockup.forms.rrect;rSize=0;strokeColor=#999999;fillColor=#ffffff;" parent="-d9akvzt12ohpf-Q32kC-2" vertex="1">
                    <mxGeometry x="305" y="160" width="200" height="300" as="geometry"/>
                </mxCell>
                <mxCell id="-d9akvzt12ohpf-Q32kC-6" value="Sign In" style="strokeWidth=1;shadow=0;dashed=0;align=center;html=1;shape=mxgraph.mockup.forms.anchor;fontSize=12;fontColor=#666666;align=left;resizeWidth=1;spacingLeft=0;" parent="-d9akvzt12ohpf-Q32kC-5" vertex="1">
                    <mxGeometry width="100" height="20" relative="1" as="geometry">
                        <mxPoint x="10" y="10" as="offset"/>
                    </mxGeometry>
                </mxCell>
                <mxCell id="-d9akvzt12ohpf-Q32kC-7" value="" style="shape=line;strokeColor=#ddeeff;strokeWidth=2;html=1;resizeWidth=1;" parent="-d9akvzt12ohpf-Q32kC-5" vertex="1">
                    <mxGeometry width="180" height="10" relative="1" as="geometry">
                        <mxPoint x="10" y="30" as="offset"/>
                    </mxGeometry>
                </mxCell>
                <mxCell id="-d9akvzt12ohpf-Q32kC-8" value="User Name:" style="strokeWidth=1;shadow=0;dashed=0;align=center;html=1;shape=mxgraph.mockup.forms.anchor;fontSize=12;fontColor=#666666;align=left;resizeWidth=1;spacingLeft=0;" parent="-d9akvzt12ohpf-Q32kC-5" vertex="1">
                    <mxGeometry width="100" height="20" relative="1" as="geometry">
                        <mxPoint x="10" y="40" as="offset"/>
                    </mxGeometry>
                </mxCell>
                <mxCell id="-d9akvzt12ohpf-Q32kC-9" value="johndoe" style="strokeWidth=1;shadow=0;dashed=0;align=center;html=1;shape=mxgraph.mockup.forms.rrect;rSize=0;strokeColor=#999999;fontColor=#666666;align=left;spacingLeft=5;resizeWidth=1;" parent="-d9akvzt12ohpf-Q32kC-5" vertex="1">
                    <mxGeometry width="150" height="25" relative="1" as="geometry">
                        <mxPoint x="10" y="60" as="offset"/>
                    </mxGeometry>
                </mxCell>
                <mxCell id="-d9akvzt12ohpf-Q32kC-10" value="Password:" style="strokeWidth=1;shadow=0;dashed=0;align=center;html=1;shape=mxgraph.mockup.forms.anchor;fontSize=12;fontColor=#666666;align=left;resizeWidth=1;spacingLeft=0;" parent="-d9akvzt12ohpf-Q32kC-5" vertex="1">
                    <mxGeometry width="100" height="20" relative="1" as="geometry">
                        <mxPoint x="10" y="95" as="offset"/>
                    </mxGeometry>
                </mxCell>
                <mxCell id="-d9akvzt12ohpf-Q32kC-11" value="********" style="strokeWidth=1;shadow=0;dashed=0;align=center;html=1;shape=mxgraph.mockup.forms.rrect;rSize=0;strokeColor=#999999;fontColor=#666666;align=left;spacingLeft=5;resizeWidth=1;" parent="-d9akvzt12ohpf-Q32kC-5" vertex="1">
                    <mxGeometry width="150" height="25" relative="1" as="geometry">
                        <mxPoint x="10" y="115" as="offset"/>
                    </mxGeometry>
                </mxCell>
                <mxCell id="-d9akvzt12ohpf-Q32kC-12" value="SIGN IN" style="strokeWidth=1;shadow=0;dashed=0;align=center;html=1;shape=mxgraph.mockup.forms.rrect;rSize=5;strokeColor=none;fontColor=#ffffff;fillColor=#66bbff;fontSize=16;fontStyle=1;" parent="-d9akvzt12ohpf-Q32kC-5" vertex="1">
                    <mxGeometry y="1" width="80" height="30" relative="1" as="geometry">
                        <mxPoint x="20" y="-150" as="offset"/>
                    </mxGeometry>
                </mxCell>
                <mxCell id="-d9akvzt12ohpf-Q32kC-13" value="Forgot Password?" style="strokeWidth=1;shadow=0;dashed=0;align=center;html=1;shape=mxgraph.mockup.forms.anchor;fontSize=12;fontColor=#9999ff;align=left;spacingLeft=0;fontStyle=4;resizeWidth=1;" parent="-d9akvzt12ohpf-Q32kC-5" vertex="1">
                    <mxGeometry y="1" width="150" height="20" relative="1" as="geometry">
                        <mxPoint x="10" y="-110" as="offset"/>
                    </mxGeometry>
                </mxCell>
                <mxCell id="-d9akvzt12ohpf-Q32kC-14" value="" style="shape=line;strokeColor=#ddeeff;strokeWidth=2;html=1;resizeWidth=1;" parent="-d9akvzt12ohpf-Q32kC-5" vertex="1">
                    <mxGeometry y="1" width="180" height="10" relative="1" as="geometry">
                        <mxPoint x="10" y="-90" as="offset"/>
                    </mxGeometry>
                </mxCell>
                <mxCell id="-d9akvzt12ohpf-Q32kC-15" value="New User" style="strokeWidth=1;shadow=0;dashed=0;align=center;html=1;shape=mxgraph.mockup.forms.anchor;fontSize=12;fontColor=#666666;align=left;spacingLeft=0;resizeWidth=1;" parent="-d9akvzt12ohpf-Q32kC-5" vertex="1">
                    <mxGeometry y="1" width="150" height="20" relative="1" as="geometry">
                        <mxPoint x="10" y="-70" as="offset"/>
                    </mxGeometry>
                </mxCell>
                <mxCell id="-d9akvzt12ohpf-Q32kC-16" value="SIGN UP" style="strokeWidth=1;shadow=0;dashed=0;align=center;html=1;shape=mxgraph.mockup.forms.rrect;rSize=5;strokeColor=none;fontColor=#ffffff;fillColor=#66bbff;fontSize=16;fontStyle=1;" parent="-d9akvzt12ohpf-Q32kC-5" vertex="1">
                    <mxGeometry y="1" width="80" height="30" relative="1" as="geometry">
                        <mxPoint x="20" y="-50" as="offset"/>
                    </mxGeometry>
                </mxCell>
                <mxCell id="-d9akvzt12ohpf-Q32kC-17" value="" style="strokeWidth=1;shadow=0;dashed=0;align=center;html=1;shape=mxgraph.mockup.containers.browserWindow;rSize=0;strokeColor=#666666;strokeColor2=#008cff;strokeColor3=#c4c4c4;mainText=,;recursiveResize=0;" parent="-d9akvzt12ohpf-Q32kC-1" vertex="1">
                    <mxGeometry x="944" y="25" width="710" height="500" as="geometry"/>
                </mxCell>
                <mxCell id="-d9akvzt12ohpf-Q32kC-18" value="Page 1" style="strokeWidth=1;shadow=0;dashed=0;align=center;html=1;shape=mxgraph.mockup.containers.anchor;fontSize=17;fontColor=#666666;align=left;" parent="-d9akvzt12ohpf-Q32kC-17" vertex="1">
                    <mxGeometry x="60" y="12" width="110" height="26" as="geometry"/>
                </mxCell>
                <mxCell id="-d9akvzt12ohpf-Q32kC-19" value="https://www.draw.io" style="strokeWidth=1;shadow=0;dashed=0;align=center;html=1;shape=mxgraph.mockup.containers.anchor;rSize=0;fontSize=17;fontColor=#666666;align=left;" parent="-d9akvzt12ohpf-Q32kC-17" vertex="1">
                    <mxGeometry x="130" y="60" width="250" height="26" as="geometry"/>
                </mxCell>
                <mxCell id="-d9akvzt12ohpf-Q32kC-29" value="" style="verticalLabelPosition=bottom;shadow=0;dashed=0;align=center;html=1;verticalAlign=top;strokeWidth=1;shape=mxgraph.mockup.navigation.coverFlow;strokeColor=#999999;" parent="-d9akvzt12ohpf-Q32kC-17" vertex="1">
                    <mxGeometry x="155" y="210" width="400" height="200" as="geometry"/>
                </mxCell>
                <mxCell id="-d9akvzt12ohpf-Q32kC-31" value="Liste des projets" style="text;strokeColor=none;fillColor=none;html=1;fontSize=24;fontStyle=1;verticalAlign=middle;align=center;" parent="-d9akvzt12ohpf-Q32kC-17" vertex="1">
                    <mxGeometry x="227.5" y="140" width="255" height="40" as="geometry"/>
                </mxCell>
                <mxCell id="-d9akvzt12ohpf-Q32kC-32" value="Créer un projet" style="strokeWidth=1;shadow=0;dashed=0;align=center;html=1;shape=mxgraph.mockup.buttons.button;strokeColor=#666666;fontColor=#ffffff;mainText=;buttonStyle=round;fontSize=17;fontStyle=1;fillColor=#008cff;whiteSpace=wrap;" parent="-d9akvzt12ohpf-Q32kC-17" vertex="1">
                    <mxGeometry x="559" y="120" width="145" height="41" as="geometry"/>
                </mxCell>
                <mxCell id="-d9akvzt12ohpf-Q32kC-33" value="" style="strokeWidth=1;shadow=0;dashed=0;align=center;html=1;shape=mxgraph.mockup.containers.browserWindow;rSize=0;strokeColor=#666666;strokeColor2=#008cff;strokeColor3=#c4c4c4;mainText=,;recursiveResize=0;" parent="-d9akvzt12ohpf-Q32kC-1" vertex="1">
                    <mxGeometry x="1810" y="25" width="780" height="490" as="geometry"/>
                </mxCell>
                <mxCell id="-d9akvzt12ohpf-Q32kC-34" value="Page 1" style="strokeWidth=1;shadow=0;dashed=0;align=center;html=1;shape=mxgraph.mockup.containers.anchor;fontSize=17;fontColor=#666666;align=left;" parent="-d9akvzt12ohpf-Q32kC-33" vertex="1">
                    <mxGeometry x="60" y="12" width="110" height="26" as="geometry"/>
                </mxCell>
                <mxCell id="-d9akvzt12ohpf-Q32kC-35" value="https://www.draw.io" style="strokeWidth=1;shadow=0;dashed=0;align=center;html=1;shape=mxgraph.mockup.containers.anchor;rSize=0;fontSize=17;fontColor=#666666;align=left;" parent="-d9akvzt12ohpf-Q32kC-33" vertex="1">
                    <mxGeometry x="130" y="60" width="250" height="26" as="geometry"/>
                </mxCell>
                <mxCell id="-d9akvzt12ohpf-Q32kC-36" value="Nom du projet" style="text;strokeColor=none;fillColor=none;html=1;fontSize=24;fontStyle=1;verticalAlign=middle;align=center;" parent="-d9akvzt12ohpf-Q32kC-33" vertex="1">
                    <mxGeometry x="3" y="120" width="255" height="40" as="geometry"/>
                </mxCell>
                <mxCell id="-d9akvzt12ohpf-Q32kC-38" value="" style="shape=process;whiteSpace=wrap;html=1;backgroundOutline=1;size=0.3381294964028777;" parent="-d9akvzt12ohpf-Q32kC-33" vertex="1">
                    <mxGeometry x="55" y="170" width="695" height="290" as="geometry"/>
                </mxCell>
                <mxCell id="-d9akvzt12ohpf-Q32kC-39" value="A faire" style="text;html=1;strokeColor=none;fillColor=none;align=center;verticalAlign=middle;whiteSpace=wrap;rounded=0;fontStyle=1;fontSize=15;" parent="-d9akvzt12ohpf-Q32kC-33" vertex="1">
                    <mxGeometry x="115" y="170" width="70" height="20" as="geometry"/>
                </mxCell>
                <mxCell id="-d9akvzt12ohpf-Q32kC-40" value="En cours" style="text;html=1;strokeColor=none;fillColor=none;align=center;verticalAlign=middle;whiteSpace=wrap;rounded=0;fontStyle=1;fontSize=15;" parent="-d9akvzt12ohpf-Q32kC-33" vertex="1">
                    <mxGeometry x="368.75" y="170" width="67.5" height="20" as="geometry"/>
                </mxCell>
                <mxCell id="-d9akvzt12ohpf-Q32kC-41" value="Terminé" style="text;html=1;strokeColor=none;fillColor=none;align=center;verticalAlign=middle;whiteSpace=wrap;rounded=0;fontStyle=1;fontSize=15;" parent="-d9akvzt12ohpf-Q32kC-33" vertex="1">
                    <mxGeometry x="610" y="170" width="67.5" height="20" as="geometry"/>
                </mxCell>
                <mxCell id="-d9akvzt12ohpf-Q32kC-48" value="" style="verticalLabelPosition=bottom;shadow=0;dashed=0;align=center;html=1;verticalAlign=top;strokeWidth=1;shape=mxgraph.mockup.navigation.scrollBar;strokeColor=#999999;barPos=20;fillColor2=#99ddff;strokeColor2=none;direction=north;fontSize=5;" parent="-d9akvzt12ohpf-Q32kC-33" vertex="1">
                    <mxGeometry x="270" y="170" width="22" height="290" as="geometry"/>
                </mxCell>
                <mxCell id="-d9akvzt12ohpf-Q32kC-49" value="" style="verticalLabelPosition=bottom;shadow=0;dashed=0;align=center;html=1;verticalAlign=top;strokeWidth=1;shape=mxgraph.mockup.navigation.scrollBar;strokeColor=#999999;barPos=20;fillColor2=#99ddff;strokeColor2=none;direction=north;fontSize=5;" parent="-d9akvzt12ohpf-Q32kC-33" vertex="1">
                    <mxGeometry x="500" y="170" width="20" height="290" as="geometry"/>
                </mxCell>
                <mxCell id="-d9akvzt12ohpf-Q32kC-50" value="" style="verticalLabelPosition=bottom;shadow=0;dashed=0;align=center;html=1;verticalAlign=top;strokeWidth=1;shape=mxgraph.mockup.navigation.scrollBar;strokeColor=#999999;barPos=20;fillColor2=#99ddff;strokeColor2=none;direction=north;fontSize=5;" parent="-d9akvzt12ohpf-Q32kC-33" vertex="1">
                    <mxGeometry x="730" y="170" width="20" height="290" as="geometry"/>
                </mxCell>
                <mxCell id="-d9akvzt12ohpf-Q32kC-54" value="" style="strokeWidth=1;shadow=0;dashed=0;align=center;html=1;shape=mxgraph.mockup.buttons.multiButton;fillColor=#008cff;strokeColor=#666666;mainText=;subText=;fontSize=5;" parent="-d9akvzt12ohpf-Q32kC-33" vertex="1">
                    <mxGeometry x="610" y="115" width="150" height="35" as="geometry"/>
                </mxCell>
                <mxCell id="-d9akvzt12ohpf-Q32kC-55" value="Paramètres" style="strokeWidth=1;shadow=0;dashed=0;align=center;html=1;shape=mxgraph.mockup.anchor;fontSize=16;fontColor=#ffffff;fontStyle=1;whiteSpace=wrap;" parent="-d9akvzt12ohpf-Q32kC-54" vertex="1">
                    <mxGeometry y="5.6000000000000005" width="150" height="14" as="geometry"/>
                </mxCell>
                <mxCell id="-d9akvzt12ohpf-Q32kC-56" value="Pour admin" style="strokeWidth=1;shadow=0;dashed=0;align=center;html=1;shape=mxgraph.mockup.anchor;fontSize=12;fontColor=#ffffff;fontStyle=1;whiteSpace=wrap;" parent="-d9akvzt12ohpf-Q32kC-54" vertex="1">
                    <mxGeometry y="21" width="150" height="7" as="geometry"/>
                </mxCell>
                <mxCell id="-d9akvzt12ohpf-Q32kC-57" value="+" style="strokeWidth=1;shadow=0;dashed=0;align=center;html=1;shape=mxgraph.mockup.buttons.button;strokeColor=#666666;fontColor=#ffffff;mainText=;buttonStyle=round;fontSize=17;fontStyle=1;fillColor=#008cff;whiteSpace=wrap;" parent="-d9akvzt12ohpf-Q32kC-33" vertex="1">
                    <mxGeometry x="340" y="131.25" width="22" height="17.5" as="geometry"/>
                </mxCell>
                <mxCell id="-d9akvzt12ohpf-Q32kC-58" value="Créer une tâche" style="text;html=1;strokeColor=none;fillColor=none;align=center;verticalAlign=middle;whiteSpace=wrap;rounded=0;fontSize=13;" parent="-d9akvzt12ohpf-Q32kC-33" vertex="1">
                    <mxGeometry x="230" y="131.25" width="110" height="20" as="geometry"/>
                </mxCell>
                <mxCell id="-d9akvzt12ohpf-Q32kC-51" value="" style="group" parent="-d9akvzt12ohpf-Q32kC-33" vertex="1" connectable="0">
                    <mxGeometry x="90" y="202.5" width="150" height="85" as="geometry"/>
                </mxCell>
                <mxCell id="-d9akvzt12ohpf-Q32kC-42" value="" style="rounded=1;whiteSpace=wrap;html=1;" parent="-d9akvzt12ohpf-Q32kC-51" vertex="1">
                    <mxGeometry width="150" height="85" as="geometry"/>
                </mxCell>
                <mxCell id="-d9akvzt12ohpf-Q32kC-44" value="&lt;h1 style=&quot;font-size: 8px;&quot;&gt;Heading&lt;/h1&gt;&lt;p style=&quot;font-size: 8px;&quot;&gt;Lorem ipsum dolor sit amet, consectetur adipisicing elit, sed do eiusmod tempor incididunt ut labore et dolore magna aliqua.&lt;/p&gt;" style="text;html=1;strokeColor=none;fillColor=none;spacing=5;spacingTop=-20;whiteSpace=wrap;overflow=hidden;rounded=0;fontSize=8;" parent="-d9akvzt12ohpf-Q32kC-51" vertex="1">
                    <mxGeometry x="10" y="12.5" width="120" height="60" as="geometry"/>
                </mxCell>
                <mxCell id="-d9akvzt12ohpf-Q32kC-45" value="" style="outlineConnect=0;fontColor=#232F3E;gradientColor=none;strokeColor=#232F3E;fillColor=#ffffff;dashed=0;verticalLabelPosition=bottom;verticalAlign=top;align=center;html=1;fontSize=12;fontStyle=0;aspect=fixed;shape=mxgraph.aws4.resourceIcon;resIcon=mxgraph.aws4.user;" parent="-d9akvzt12ohpf-Q32kC-51" vertex="1">
                    <mxGeometry x="120" y="65" width="20" height="20" as="geometry"/>
                </mxCell>
                <mxCell id="-d9akvzt12ohpf-Q32kC-46" value="BDC Thomas" style="text;html=1;strokeColor=none;fillColor=none;align=center;verticalAlign=middle;whiteSpace=wrap;rounded=0;fontSize=5;" parent="-d9akvzt12ohpf-Q32kC-51" vertex="1">
                    <mxGeometry x="80" y="65" width="50" height="20" as="geometry"/>
                </mxCell>
                <mxCell id="-d9akvzt12ohpf-Q32kC-47" value="" style="strokeColor=#999999;verticalLabelPosition=bottom;shadow=0;dashed=0;verticalAlign=top;strokeWidth=2;html=1;shape=mxgraph.mockup.misc.editIcon;fontSize=5;" parent="-d9akvzt12ohpf-Q32kC-51" vertex="1">
                    <mxGeometry x="120" y="5" width="20" height="20" as="geometry"/>
                </mxCell>
            </root>
        </mxGraphModel>
    </diagram>
    <diagram id="sBpT_0C0lw9mN37vCbQ5" name="TODO list">
        <mxGraphModel dx="902" dy="504" grid="1" gridSize="10" guides="1" tooltips="1" connect="1" arrows="1" fold="1" page="1" pageScale="1" pageWidth="827" pageHeight="1169" math="0" shadow="0">
            <root>
                <mxCell id="bcRDFWogx4BMBlyIV-g3-0"/>
                <mxCell id="bcRDFWogx4BMBlyIV-g3-1" parent="bcRDFWogx4BMBlyIV-g3-0"/>
            </root>
        </mxGraphModel>
    </diagram>
</mxfile>